/* XPM */
static char * key_xpm[] = {
"64 64 222 2",
"  	c None",
". 	c #F5F5F5",
"+ 	c #F7F7F7",
"@ 	c #FBFBFB",
"# 	c #CBCBCB",
"$ 	c #ECECEC",
"% 	c #DADBDA",
"& 	c #D5D6D5",
"* 	c #F0F0F0",
"= 	c #FAFAFA",
"- 	c #C8C8C8",
"; 	c #EBEBEB",
"> 	c #F9F9F9",
", 	c #FDFDFD",
"' 	c #D1D2D1",
") 	c #F6F6F6",
"! 	c #FAFBFA",
"~ 	c #C7C7C7",
"{ 	c #E9E9E9",
"] 	c #F4F4F4",
"^ 	c #F8F8F8",
"/ 	c #FCFCFC",
"( 	c #E2E2E2",
"_ 	c #BBBBBB",
": 	c #F1F1F1",
"< 	c #F9FAF9",
"[ 	c #F7F8F7",
"} 	c #C5C5C5",
"| 	c #E1E1E1",
"1 	c #DADADA",
"2 	c #DDDDDD",
"3 	c #D0D0D0",
"4 	c #CFCFCF",
"5 	c #F2F2F2",
"6 	c #F5F6F5",
"7 	c #C4C4C4",
"8 	c #F3F3F3",
"9 	c #DFDFDF",
"0 	c #DBDBDB",
"a 	c #CCCCCC",
"b 	c #CACACA",
"c 	c #C2C3C2",
"d 	c #DEDEDE",
"e 	c #DCDCDC",
"f 	c #C9C9C9",
"g 	c #C1C1C1",
"h 	c #E8E8E8",
"i 	c #DCDDDC",
"j 	c #D9D9D9",
"k 	c #C0C0C0",
"l 	c #E7E7E7",
"m 	c #CDCDCD",
"n 	c #EFEFEF",
"o 	c #BFBFBF",
"p 	c #E6E6E6",
"q 	c #D8D8D8",
"r 	c #EEEEEE",
"s 	c #BEBEBE",
"t 	c #E5E5E5",
"u 	c #E0E0E0",
"v 	c #E4E4E4",
"w 	c #EAEAEA",
"x 	c #EDEDED",
"y 	c #D7D7D7",
"z 	c #ECEDEC",
"A 	c #BABABA",
"B 	c #E3E3E3",
"C 	c #D5D5D5",
"D 	c #D6D6D6",
"E 	c #AAAAAA",
"F 	c #E4E5E4",
"G 	c #C5C6C5",
"H 	c #C8C9C8",
"I 	c #E8E9E8",
"J 	c #B9B9B9",
"K 	c #EBECEB",
"L 	c #EDEEED",
"M 	c #D4D4D4",
"N 	c #7B7B7B",
"O 	c #D2D2D2",
"P 	c #C2C2C2",
"Q 	c #E6E7E6",
"R 	c #E5E6E5",
"S 	c #B8B9B8",
"T 	c #EAEBEA",
"U 	c #D2D3D2",
"V 	c #8A8A8A",
"W 	c #CCCDCC",
"X 	c #D3D3D3",
"Y 	c #E3E4E3",
"Z 	c #B6B6B6",
"` 	c #888888",
" .	c #DFE0DF",
"..	c #BCBCBC",
"+.	c #C3C3C3",
"@.	c #F0F1F0",
"#.	c #E2E3E2",
"$.	c #E1E2E1",
"%.	c #B5B6B5",
"&.	c #D1D1D1",
"*.	c #D4D5D4",
"=.	c #C0C1C0",
"-.	c #E0E1E0",
";.	c #B3B4B3",
">.	c #868686",
",.	c #C6C7C6",
"'.	c #DEDFDE",
").	c #B3B3B3",
"!.	c #CECECE",
"~.	c #858585",
"{.	c #DDDEDD",
"].	c #B2B3B2",
"^.	c #848484",
"/.	c #9B9B9B",
"(.	c #B0B1B0",
"_.	c #CACBCA",
":.	c #838383",
"<.	c #D7D8D7",
"[.	c #AFB0AF",
"}.	c #C9CAC9",
"|.	c #ACAEAB",
"1.	c #9C9C9B",
"2.	c #9B9C9B",
"3.	c #BFC0BF",
"4.	c #ADAEAD",
"5.	c #828282",
"6.	c #878886",
"7.	c #6A6B69",
"8.	c #A0A09F",
"9.	c #D6D7D6",
"0.	c #AEAEAE",
"a.	c #8F908F",
"b.	c #DBDCDB",
"c.	c #C7C8C7",
"d.	c #BEBFBE",
"e.	c #ACACAC",
"f.	c #C6C6C6",
"g.	c #ABABAA",
"h.	c #888987",
"i.	c #9FA09E",
"j.	c #9C9C9C",
"k.	c #818181",
"l.	c #929391",
"m.	c #838382",
"n.	c #C4C5C4",
"o.	c #808080",
"p.	c #CACAC9",
"q.	c #B2B3B1",
"r.	c #CDCECD",
"s.	c #7E7E7E",
"t.	c #040404",
"u.	c #989897",
"v.	c #9B9C9A",
"w.	c #A9AAA9",
"x.	c #7F7F7F",
"y.	c #020202",
"z.	c #C2C2C1",
"A.	c #ABABAB",
"B.	c #7C7C7C",
"C.	c #797979",
"D.	c #787878",
"E.	c #B0B0B0",
"F.	c #8E8E8E",
"G.	c #979797",
"H.	c #BDBDBD",
"I.	c #767676",
"J.	c #606060",
"K.	c #626262",
"L.	c #656565",
"M.	c #737373",
"N.	c #747474",
"O.	c #959595",
"P.	c #696969",
"Q.	c #595959",
"R.	c #414141",
"S.	c #4E4E4E",
"T.	c #6D6D6D",
"U.	c #949494",
"V.	c #2F2F2F",
"W.	c #9A9A9A",
"X.	c #B7B7B7",
"Y.	c #727272",
"Z.	c #AFAFAF",
"`.	c #777777",
" +	c #3E3E3E",
".+	c #707070",
"++	c #B4B4B4",
"@+	c #4D4D4D",
"#+	c #101010",
"$+	c #939393",
"%+	c #B8B8B8",
"&+	c #5A5A5A",
"*+	c #8D8D8D",
"=+	c #666666",
"-+	c #6C6C6C",
";+	c #515151",
">+	c #6B6B6B",
",+	c #5C5C5C",
"'+	c #999999",
")+	c #464646",
"!+	c #A8A8A8",
"~+	c #5F5F5F",
"{+	c #B5B5B5",
"]+	c #7D7D7D",
"^+	c #909090",
"/+	c #494949",
"(+	c #757575",
"_+	c #9D9D9D",
":+	c #B1B1B1",
"<+	c #A1A1A1",
"[+	c #454545",
"}+	c #8F8F8F",
"|+	c #A6A6A6",
"1+	c #A4A4A4",
"2+	c #646464",
"3+	c #A9A9A9",
"4+	c #A3A3A3",
"5+	c #717171",
"6+	c #7A7A7A",
"7+	c #505050",
"8+	c #3F3F3F",
"9+	c #2C2C2C",
"                                                                                                                                ",
"                                                                                                          . + @ # $ . .         ",
"                                                                                                  % & * . = @ - ; . > , ,       ",
"                                                                                                  ' ) ! > > ~ { ] ^ / , ( _     ",
"                                                                                                  : < [ [ } { ] ) = @ | 1 2     ",
"                                                                                          $ 3 4 5 > ) 6 7 { 8 ) > = 9 0 ) 2     ",
"                                                                                        $ a b ] > ] . c { 5 ] [ ^ 2 1 . ) d     ",
"                                                                                      e # f ] + 5 8 g h : 8 6 [ i j . . . d     ",
"                                                                                      4 b 8 ) 5 : k l * 5 ] ) 0 j ] ] . . 9     ",
"                                                                                      m 5 . * n o p * 5 8 . 1 q 8 ] ] . ) 9     ",
"                                                                                      1 8 r r s t n * : 8 j q 8 8 ] ] . . u     ",
"                                                                                      $ $ $ _ v r n * 5 j q 5 5 8 8 ] . 8 u     ",
"                                                                                    $ { w _ v x r r * y y : 5 5 8 ] ] 5 ) m     ",
"                                                                                0 z h h A B $ z x n C D : : 5 5 8 ] 5 ] : E     ",
"                                                                        F G H 5 r I l J B $ K K L M D * : : : 8 8 : ] . # N     ",
"                                                                        O P 5 n Q R S ( ; T w $ U D n * * : 5 5 : . ] m V       ",
"                                                                    2 W X 5 r F Y Z u w w { T ' C n n * * : 5 : ] . m `         ",
"                                                                   ...+.@.L #.$.%.9 { h l { &.*.r n n * : 5 : 8 ] m `           ",
"                                                                  =.=.: z -.u ;.9 h l p h 4 X x r r n * * * 5 8 m >.            ",
"                                                                  ,.: K  .'.).9 h Q F p !.X x x r n * * n 5 5 # ~.              ",
"                                                                  n w {.i ].d l F B R W X $ x x r n n n : 5 # ^.                ",
"                                                        1       /.h e % (.2 p Y #.Y _.O ; $ x r r * n * 5 a :.                  ",
"                                                      a <.#     t 0 j [.e t ( -.#.}.O ; ; $ x r r x * : a :.                    ",
"                                                    |.1.2.3.r l 1 q 4.0 v |  .-.H ' w ; ; x x r x n : # 5.                      ",
"                            t w $ h t t t t p ( C 0 6.7.8.{ p <.9.0.0 v u d  .,.&.{ w ; $ x r $ r * f :.                        ",
"                        w ; | e y q q q q j j e u 2 q a.b.c.d.*.e.1 B 9 2 d f.&.{ { w ; $ x $ r * - 5.                          ",
"                    $ ; 2 D D D y y y q q q q q j 1 1 j g.h.i.j.1 ( d b.2 } 3 h { { ; ; x ; x * f k.                            ",
"                  n d M C C C 1 9 d l { | t v B 0 1 0 e 1 l.m.C | 9.1 b.n.3 l h { w ; $ ; x n - o.                              ",
"              d n q M M M 2 d w ( B ( { t | t v { | ( e 2 9 j e p.q.r.c 4 l l h { w ; ; x n ~ s.t.                              ",
"              $ M O X M t u ( d x u ( | p t u t l h ( { u 9 9 j u.v.w.4 p l l { w w $ x n } x.y.                                ",
"            x O O O 0 9 9 ; 2 | u { 9 B | l v ( { p l t $ ( u | z.A.q t p l h { w $ $ n } B.y.                                  ",
"          $ M 3 &.C t 9 9 ( h 2 ( d w d | v t t ( { p h t n | | ( D 1 ( p h h { ; $ r } N y.                                    ",
"        m 1 3 3 O M M X O y 0 l 2 | u t 2 t v p t B x t { l x | B u O 0 t h { w $ r +.C.y.                                      ",
"        ( 4 4 4 4 X D q y C &.M v e | u l 9 v l v p t $ l { p { B v 1 M d h w $ n P D.y.                                        ",
"      f.D !.!.4 D E.F.o.G.H.q &.M v e ( B v u p h v l l l B ; { B v p 4 q B $ n s I.y.                                          ",
"      4 m m m m 5.J.K.L.M.5.A.M &.D B d t B t ( l w p B 9 | t ; l t p D &.d r s N.y.                                            ",
"      C a a 4 O.P.P.Q.R.S.T.U.P O X 9 v 9 t v p B w ( 9 u | ( p w p p B !.v _ N.y.                                              ",
"      4 # a P N.L.          V.W.X X e ( v u h B p | d 9 u ( B w h p l h y X.Y.y.                                                ",
"    W.b # # Z.`.               +a X y t u v ( { u 2 9 u | ( t $ r l h { !..+y.                                                  ",
"    G.b b b ++@+                } M 2 v t | t u e d 9 u ( l ; w x h h { q #+                                                    ",
"    W.f f b b                   X M d u v l 2 e 2 d u | B x ; $ x h { w |                                                       ",
"    $+- f f &.%+              s D C u | ( | 0 2 d 9 | v ; ; $ $ x h w ; w &+                                                    ",
"    *+- - - - (             A | M y h | e 0 2 2 d u v ; h x $ x ; { w ; r =+                                                    ",
"    ^.~ ~ ~ - a n l     1 v ; C C 9 d | 1 9 9 u 9 B h w $ { x r ; w ; $ l -+                                                    ",
"    ;+b f.~ a - # 9 $ : ; 9 O X | 9 2 j d 2 9 9 t h h ; $ $ ; * w w $ x | >+                                                    ",
"      a f.f.D M &.4 m 4 3 &.0 e 9 d j 2 d u 9 | l ; w { x $ r $ w $ x n !.,+                                                    ",
"      b } f.b j C e j e y 9 ( d 1 q 0 d u 2 t v h w ; ; ; r r ; ; $ x : '+)+                                                    ",
"      !+4 ~ - 3 1 q 2 0 9 1 B 1 y 0 d e 2 u p w p ; w $ $ x * ; $ x r p >.                                                      ",
"      ~+0 - f # q 1 j u 0 9 j y 0 d e 2 B v h h $ h $ x $ x ; ; x r 8 {+T.                                                      ",
"        M q f # X y e e u j D 0 e d 2 d p { p h w $ w x r w ; $ r * h V @+                                                      ",
"        >.( C a m D j 2 e | y 2 d 0 u t t h { h ; ; x ; $ ; $ r n + !+]+                                                        ",
"          3 v O 4 3 D 1 d u 9 q 1 2 l t l l h ; w x $ w ; $ x r + ~ ^+/+                                                        ",
"          (+( h y 3 O C q d u ( d v t l p { { w ; { { w ; x r + e O.`.                                                          ",
"            j.( w 2 X M D q 2 u t ( l p h h h { l h w ; x n > e '+`                                                             ",
"              {+9 { { j y q j 0 2 9 u ( B v t p h { ; $ 8 > - _+U.                                                              ",
"                :+0 ( 5 ; 2 1 e d 9 u ( B t p h { w : = n Z <+$+[+                                                              ",
"                  }+D D B ] . $ p v B B v h ; : + / 5 7 |+1+`                                                                   ",
"                    2+H.3 !.C v : + @ / / = + r q Z A.3+4+5+                                                                    ",
"                        .+A f f.+.P s s A {+).).E.Z.E 6+                                                                        ",
"                            7+5.!+.._ %+Z {+).4+5.&+                                                                            ",
"                                      8+)+9+                                                                                    ",
"                                                                                                                                ",
"                                                                                                                                ",
"                                                                                                                                "};
