/* XPM */
static char * key_xpm[] = {
"32 32 117 2",
"  	c None",
". 	c #5F6066",
"+ 	c #71737A",
"@ 	c #74767D",
"# 	c #75777E",
"$ 	c #72747B",
"% 	c #67686F",
"& 	c #5B5C62",
"* 	c #6F7077",
"= 	c #898B94",
"- 	c #90929B",
"; 	c #8A8C95",
"> 	c #787981",
", 	c #707279",
"' 	c #8B8D96",
") 	c #868890",
"! 	c #7E8087",
"~ 	c #8D8F98",
"{ 	c #8F9199",
"] 	c #83858D",
"^ 	c #80828A",
"/ 	c #8F919A",
"( 	c #797B83",
"_ 	c #55565B",
": 	c #81838B",
"< 	c #8C8E97",
"[ 	c #84868E",
"} 	c #5D5E65",
"| 	c #7E7F88",
"1 	c #7B7D85",
"2 	c #878992",
"3 	c #6E7077",
"4 	c #525358",
"5 	c #76787E",
"6 	c #74767B",
"7 	c #9C9DA4",
"8 	c #7C7D83",
"9 	c #616266",
"0 	c #65666B",
"a 	c #6B6C71",
"b 	c #5B5C60",
"c 	c #68696D",
"d 	c #56575B",
"e 	c #6A6B70",
"f 	c #55555C",
"g 	c #434348",
"h 	c #66686E",
"i 	c #65666C",
"j 	c #63646A",
"k 	c #54565A",
"l 	c #707178",
"m 	c #878991",
"n 	c #84868C",
"o 	c #8C8E94",
"p 	c #88898F",
"q 	c #828389",
"r 	c #888A90",
"s 	c #7B7C82",
"t 	c #7F8086",
"u 	c #84858B",
"v 	c #77787D",
"w 	c #727379",
"x 	c #74757B",
"y 	c #76787D",
"z 	c #6E6F74",
"A 	c #4F5055",
"B 	c #65676D",
"C 	c #48494D",
"D 	c #606167",
"E 	c #787A81",
"F 	c #717279",
"G 	c #878990",
"H 	c #94969C",
"I 	c #95979D",
"J 	c #95969D",
"K 	c #4F5054",
"L 	c #55565C",
"M 	c #4F4F54",
"N 	c #6A6B71",
"O 	c #424347",
"P 	c #626369",
"Q 	c #45464A",
"R 	c #6B6D73",
"S 	c #808188",
"T 	c #86888D",
"U 	c #85878C",
"V 	c #717377",
"W 	c #6B6C73",
"X 	c #686970",
"Y 	c #5D5D63",
"Z 	c #777980",
"` 	c #48494E",
" .	c #5E5F65",
"..	c #4E4F54",
"+.	c #6B6D74",
"@.	c #858790",
"#.	c #808289",
"$.	c #8A8B93",
"%.	c #7E7F85",
"&.	c #696A71",
"*.	c #46474C",
"=.	c #6F7178",
"-.	c #8C8E96",
";.	c #73757C",
">.	c #777880",
",.	c #505156",
"'.	c #82848C",
").	c #868891",
"!.	c #83858E",
"~.	c #898B93",
"{.	c #73747B",
"].	c #8E9099",
"^.	c #717379",
"/.	c #6D6E75",
"(.	c #72737B",
"_.	c #74767E",
":.	c #616268",
"                                                                ",
"                                                                ",
"                                                                ",
"                                                                ",
"                                                                ",
"                                                                ",
"                                                                ",
"                                                                ",
"                                                                ",
"      . + @ # $ % &                                             ",
"    * = - - - - - ; >                                           ",
"  , ' - - ) ! ~ - - { ] .                                       ",
"  ^ / / - ( _ : = < - - [                                       ",
"} | 1 1 2 [ , 3 4 + - - < 5 6 7 8 9 0 a   b c   d e             ",
"f g     h > i j k l - - - m n o p q n r s t u s s u v w x y z   ",
"A         B C D E F - - - m G H I I I I I I I I I I I I J H o K ",
"L       M N O P Q R - - - m S T T T T T T T T T T T T T T U V   ",
"W X Y P Z # `  ...+.- - - @.#.$.s %.%.%.%.%.%.%.%.%.%.%.%.s     ",
"&.~ ) 2 - Z *.=.E ] - - -.;.   .                                ",
"  ] / - - >.,.'.- / - - ).                                      ",
"    !./ - ~.( ' - - - ~ {.                                      ",
"      >.< - - - - ].] ^.                                        ",
"          /.(._./.:.                                            ",
"                                                                ",
"                                                                ",
"                                                                ",
"                                                                ",
"                                                                ",
"                                                                ",
"                                                                ",
"                                                                ",
"                                                                "};
