/* XPM */
static char * key_xpm[] = {
"32 32 244 2",
"  	c None",
". 	c #000000",
"+ 	c #000000",
"@ 	c #000000",
"# 	c #575757",
"$ 	c #000000",
"% 	c #282828",
"& 	c #000000",
"* 	c #4F4F4F",
"= 	c #000000",
"- 	c #000000",
"; 	c #000000",
"> 	c #000000",
", 	c #000000",
"' 	c #010101",
") 	c #000000",
"! 	c #0B0B0B",
"~ 	c #000000",
"{ 	c #000000",
"] 	c #000000",
"^ 	c #000000",
"/ 	c #666666",
"( 	c #C0C0C0",
"_ 	c #000000",
": 	c #000000",
"< 	c #000000",
"[ 	c #000000",
"} 	c #D7D7D7",
"| 	c #000000",
"1 	c #000000",
"2 	c #B1B1B1",
"3 	c #000000",
"4 	c #000000",
"5 	c #000000",
"6 	c #000000",
"7 	c #000000",
"8 	c #000000",
"9 	c #C8C8C8",
"0 	c #CACBCA",
"a 	c #000000",
"b 	c #000000",
"c 	c #000000",
"d 	c #000000",
"e 	c #000000",
"f 	c #000000",
"g 	c #646464",
"h 	c #000000",
"i 	c #323232",
"j 	c #040404",
"k 	c #000000",
"l 	c #BEBEBE",
"m 	c #000000",
"n 	c #ACACAC",
"o 	c #5C5C5C",
"p 	c #000000",
"q 	c #595959",
"r 	c #030303",
"s 	c #000000",
"t 	c #030303",
"u 	c #000000",
"v 	c #D4D5D4",
"w 	c #000000",
"x 	c #080808",
"y 	c #D2D2D2",
"z 	c #000000",
"A 	c #000000",
"B 	c #D1D1D1",
"C 	c #000000",
"D 	c #2C2C2C",
"E 	c #000000",
"F 	c #000000",
"G 	c #0F0F0F",
"H 	c #000000",
"I 	c #191919",
"J 	c #1A1A1A",
"K 	c #DDDDDD",
"L 	c #ACACAC",
"M 	c #333333",
"N 	c #2E2E2E",
"O 	c #404040",
"P 	c #828282",
"Q 	c #323232",
"R 	c #D4D5D4",
"S 	c #D6D6D6",
"T 	c #E8E8E8",
"U 	c #B8B8B8",
"V 	c #DCDCDC",
"W 	c #555555",
"X 	c #D7D7D7",
"Y 	c #E9E9E9",
"Z 	c #505050",
"` 	c #9A9A9A",
" .	c #DCDCDC",
"..	c #676767",
"+.	c #D5D6D5",
"@.	c #787878",
"#.	c #5F5F5F",
"$.	c #E3E3E3",
"%.	c #4B4B4B",
"&.	c #5C5C5C",
"*.	c #DEDEDE",
"=.	c #F0F0F0",
"-.	c #CECECE",
";.	c #D9D9D9",
">.	c #595959",
",.	c #848484",
"'.	c #D3D3D3",
").	c #D2D2D2",
"!.	c #9C9C9C",
"~.	c #A5A5A5",
"{.	c #D6D6D6",
"].	c #D8D8D8",
"^.	c #9D9D9D",
"/.	c #888888",
"(.	c #C0C1C0",
"_.	c #868686",
":.	c #848484",
"<.	c #B6B7B5",
"[.	c #838383",
"}.	c #858585",
"|.	c #848484",
"1.	c #979797",
"2.	c #828282",
"3.	c #D6D6D6",
"4.	c #828282",
"5.	c #E2E3E2",
"6.	c #757575",
"7.	c #A6A6A6",
"8.	c #7E7E7E",
"9.	c #808080",
"0.	c #7D7D7D",
"a.	c #878787",
"b.	c #D4D4D4",
"c.	c #7B7B7B",
"d.	c #969696",
"e.	c #C9C9C9",
"f.	c #B1B1B1",
"g.	c #BBBBBB",
"h.	c #ACACAC",
"i.	c #CBCCCB",
"j.	c #DFDFDF",
"k.	c #676767",
"l.	c #DDDDDD",
"m.	c #BABABA",
"n.	c #DEDEDE",
"o.	c #ABABAB",
"p.	c #B9B9B9",
"q.	c #9F9F9F",
"r.	c #A7A7A7",
"s.	c #D6D6D6",
"t.	c #D1D1D1",
"u.	c #A3A3A3",
"v.	c #D8D8D8",
"w.	c #DEDEDE",
"x.	c #F2F2F2",
"y.	c #9D9D9D",
"z.	c #9E9E9E",
"A.	c #D6D6D6",
"B.	c #9A9A9A",
"C.	c #B7B8B7",
"D.	c #D0D0D0",
"E.	c #DEDEDE",
"F.	c #F2F3F2",
"G.	c #7B7B7B",
"H.	c #848584",
"I.	c #9C9C9C",
"J.	c #9E9E9E",
"K.	c #9F9F9F",
"L.	c #A9A9A9",
"M.	c #AFB0AF",
"N.	c #B0B0B0",
"O.	c #B5B5B5",
"P.	c #B5B6B5",
"Q.	c #B8B8B8",
"R.	c #B9BAB9",
"S.	c #BBBBBB",
"T.	c #BCBDBC",
"U.	c #BEBEBE",
"V.	c #C1C1C1",
"W.	c #C2C2C2",
"X.	c #C5C5C5",
"Y.	c #C6C6C6",
"Z.	c #C7C7C7",
"`.	c #C8C8C8",
" +	c #C9C9C9",
".+	c #CACACA",
"++	c #CBCBCB",
"@+	c #CCCCCC",
"#+	c #CDCDCD",
"$+	c #CDCECD",
"%+	c #CECECE",
"&+	c #CFCFCF",
"*+	c #CFD0CF",
"=+	c #D0D0D0",
"-+	c #D1D1D1",
";+	c #D2D2D2",
">+	c #D3D3D3",
",+	c #D4D4D4",
"'+	c #D5D5D5",
")+	c #D6D6D6",
"!+	c #D7D7D7",
"~+	c #D7D8D7",
"{+	c #D8D8D8",
"]+	c #D9D9D9",
"^+	c #DADADA",
"/+	c #DBDBDB",
"(+	c #DCDCDC",
"_+	c #DCDDDC",
":+	c #DDDDDD",
"<+	c #DDDEDD",
"[+	c #DEDEDE",
"}+	c #DEDFDE",
"|+	c #DFDFDF",
"1+	c #E0E0E0",
"2+	c #E0E1E0",
"3+	c #E1E1E1",
"4+	c #E2E2E2",
"5+	c #E3E3E3",
"6+	c #E3E4E3",
"7+	c #E4E4E4",
"8+	c #E5E5E5",
"9+	c #E6E6E6",
"0+	c #E7E7E7",
"a+	c #E7E8E7",
"b+	c #E8E8E8",
"c+	c #E9E9E9",
"d+	c #EAEAEA",
"e+	c #EBEBEB",
"f+	c #EBECEB",
"g+	c #ECECEC",
"h+	c #EDEDED",
"i+	c #EEEEEE",
"j+	c #EEEFEE",
"k+	c #EFEFEF",
"l+	c #F0F0F0",
"m+	c #F1F1F1",
"n+	c #F2F2F2",
"o+	c #F2F3F2",
"p+	c #F3F3F3",
"q+	c #F4F4F4",
"r+	c #F5F5F5",
"s+	c #F6F7F6",
"t+	c #F9F9F9",
"u+	c #FCFCFC",
"                                                    Y =. .T     ",
"                                                +.F.t+%+p+u+l.  ",
"                                              {.x.s+#+m+t+7+3+  ",
"                                            D.r+p+.+l+s+3+e+e+  ",
"                                          U q+m+Z.h+q+|+c+r+e+  ",
"                                          ;.h+X.g+m+:+b+q+q+e+  ",
"                                        $.b+W.d+j+^+0+n+p+r+E.  ",
"                                    i.o+a+V.c+f+~+9+m+n+p+g+,.  ",
"                                R e.l+6+U.b+c+)+8+l+m+n+g+/.    ",
"                                (.m+1+T.9+0+,+7+i+l+m+d+_.      ",
"                                j._+R.7+6+;+5+h+i+l+e+:.        ",
"                          <.C.5.(+Q.5+2+*+5+g+h+k+c+}.          ",
"            V '.3.v.1+n.].H.6+!+P.3+[+$+3+e+g+k+c+|.            ",
"          -.]+!+^+1+:+[+]+^+J.I.<+(+@+1+c+e+h+b+2.              ",
"      S w.>+:+3+7+7+7+7+9+5+|+/+M.W.}+b+d+g+b+4.                ",
"      s.;+1+5+3+4+4+7+7+0+9+b+1+++1+0+b+e+9+9.                  ",
"    ).&+-+,+,+^+|+4+4+9+7+c+0+0+4+'+8+d+9+8.                    ",
"    =+%+L.G.K..+{+1+7+7+b+8+5+b+8+/+{+0+0.                      ",
"  ` @+N.k.%.>.y.;+3+4+8+8+1+1+8+b+8+>+c.                        ",
"  ~..+B.      Q ;+|+4+5+[+|+5+d+d+c+r.                          ",
"  f. +p.        ,+1+5+(+[+3+d+g+e+d+g.                          ",
"  h.`.@+*.  X b.!+4+(+|+1+c+e+h+d+e+m.                          ",
"  ^.Y.&+#+(+)+!+1+/+[+|+b+c+h+h+e+h+d.                          ",
"  @. +&+]+/+(+1+]+:+|+0+b+e+g+h+g+e+&.                          ",
"    '+.+!+(+:+]+(+:+9+0+d+g+h+e+k+%+                            ",
"    !.!+=+^+|+/+/+7+0+c+e+e+e+h+9+6.                            ",
"      t.|+,+^+1+5+9+b+c+c+d+i+k+u.                              ",
"      W A.7+[+/+[+3+5+9+c+m+4+z.Z                               ",
"          7.[+'+^+3+4+(+0+Y.a.                                  ",
"            ..1.o.S.O.q.[.#.                                    ",
"                                                                ",
"                                                                "};
