/* XPM */
static char *xca[] = {
/* columns rows colors chars-per-pixel */
"32 32 203 2 ",
"   c #550504",
".  c #5E0403",
"X  c #590504",
"o  c #590707",
"O  c #5C0504",
"+  c #570C0C",
"@  c #5E0808",
"#  c #5F0909",
"$  c #5A1616",
"%  c #5D1C1B",
"&  c #650504",
"*  c #6A0101",
"=  c #600909",
"-  c #620808",
";  c #630C0C",
":  c #600E0E",
">  c #730101",
",  c #770101",
"<  c #760504",
"1  c #7E0101",
"2  c #780605",
"3  c #7D0606",
"4  c #700907",
"5  c #760A09",
"6  c #700E0A",
"7  c #700E0E",
"8  c #641613",
"9  c #601818",
"0  c #6F1A1A",
"q  c #701717",
"w  c #711919",
"e  c #7E1818",
"r  c #602222",
"t  c #612424",
"y  c #632725",
"u  c #622626",
"i  c #672D29",
"p  c #6C2E2E",
"a  c #732E23",
"s  c #7C3125",
"d  c #71322B",
"f  c #76362C",
"g  c #793434",
"h  c #7F574B",
"j  c #686863",
"k  c #6E6E61",
"l  c #747466",
"z  c #77776B",
"x  c #79796B",
"c  c #7A7A6C",
"v  c #7C7C71",
"b  c #7B7B75",
"n  c #7E7C74",
"m  c #7E7E77",
"M  c #7E7E79",
"N  c #840605",
"B  c #8F0404",
"V  c #8A0908",
"C  c #99110F",
"Z  c #811414",
"A  c #9D1715",
"S  c #A10404",
"D  c #A0110E",
"F  c #A3130F",
"G  c #842626",
"H  c #972722",
"J  c #972C25",
"K  c #813629",
"L  c #A52E27",
"P  c #B72A26",
"I  c #AC322B",
"U  c #A43733",
"Y  c #8C4234",
"T  c #884738",
"R  c #A94034",
"E  c #935742",
"W  c #866259",
"Q  c #AE7357",
"!  c #866B62",
"~  c #8C7164",
"^  c #8C7B75",
"/  c #9E7974",
"(  c #A97168",
")  c #A07974",
"_  c #9D846D",
"`  c #818173",
"'  c #828274",
"]  c #908F7C",
"[  c #AB827C",
"{  c #AF837C",
"}  c #D3896E",
"|  c #DD9F7E",
" . c #8E8E85",
".. c #8F8F85",
"X. c #8D8D88",
"o. c #989887",
"O. c #919188",
"+. c #929289",
"@. c #91918A",
"#. c #949489",
"$. c #94948D",
"%. c #96968C",
"&. c #96968E",
"*. c #9A9A89",
"=. c #99998C",
"-. c #98988E",
";. c #9A9A93",
":. c #9B9B95",
">. c #B5958A",
",. c #B39E92",
"<. c #AAA48B",
"1. c #B5A387",
"2. c #BCAA86",
"3. c #A0A099",
"4. c #A6A699",
"5. c #B2AB98",
"6. c #B3B39F",
"7. c #B8B8A2",
"8. c #B2B0A8",
"9. c #B4B3AB",
"0. c #BCBBAB",
"q. c #B9B9AE",
"w. c #D39E82",
"e. c #C4AE86",
"r. c #D8A885",
"t. c #D2A88B",
"y. c #D3C995",
"u. c #DCCE9F",
"i. c #E9C59D",
"p. c #E0D29E",
"a. c #E1D69F",
"s. c #C6C1A9",
"d. c #C6C5AE",
"f. c #CFC7AC",
"g. c #CBC9AD",
"h. c #C8C8AE",
"j. c #DCC8AF",
"k. c #C2C2B1",
"l. c #C5C5B0",
"z. c #C6C6B0",
"x. c #C5C5B4",
"c. c #CBCBB1",
"v. c #D1D1B4",
"b. c #D7D7B9",
"n. c #D7D7BC",
"m. c #DADABC",
"M. c #E6CFA3",
"N. c #EBD1A4",
"B. c #E6DBA4",
"V. c #E9DEA7",
"C. c #E4DEBE",
"Z. c #EFE2A8",
"A. c #EFE5AC",
"S. c #F0E3AE",
"D. c #EBE6B2",
"F. c #E0E0BB",
"G. c #E2E2BD",
"H. c #E9E8BE",
"J. c #F8EAB0",
"K. c #FAEEB3",
"L. c #FFF0B3",
"P. c #FCF0B9",
"I. c #F8F3BC",
"U. c #EDEDC5",
"Y. c #EEEDC4",
"T. c #ECECC8",
"R. c #F4F4C5",
"E. c #FEFDC3",
"W. c #F8F8C6",
"Q. c #FAFAC7",
"!. c #FFF9C6",
"~. c #FDFDC6",
"^. c #FFFEC6",
"/. c #F9F6C8",
"(. c #F8F8C8",
"). c #FDFACB",
"_. c #FFFFC9",
"`. c #FFFFCB",
"'. c #FFFFCF",
"]. c #FFFFD2",
"[. c #FFFFD7",
"{. c #F1F1D8",
"}. c #F0F0DA",
"|. c #F5F5DE",
" X c #FAFADB",
".X c #FFFFD8",
"XX c #FFFFDC",
"oX c #FFFFDD",
"OX c #FFFFDF",
"+X c #FFFFE1",
"@X c #FFFFE3",
"#X c #FFFFE4",
"$X c #FFFFE5",
"%X c #FFFFE6",
"&X c #FFFFE9",
"*X c #FFFFEA",
"=X c #FFFFEC",
"-X c #FFFFF2",
";X c #FFFFF8",
":X c #FFFFFA",
">X c #FFFFFC",
",X c white",
"<X c None",
/* pixels */
"<X<X<X<X<X<X<X<X<X<X<X<X<X<X<X<X<X<X<X<X<X<X<X<X<X<X<X<X<X<X<X<X",
"<X<X<X<X<X<X<X<X<X<X<X<X<X<X<X<X<X<X<X<X<X<X<X<X<X<X<X<X<X<X<X<X",
"<X<X<X<X<X<X<X<X<X<X<X<X<X<X<X<X<X<X<X<X<X<X<X<X<X<X<X<X<X<X<X<X",
"<X<X<X<X<X<X<X<X<X<X<X<X<X<X<X<X<X<X<X<X<X<X<X<X<X<X<X<X<X<X<X<X",
"<X<X<X<X<X<X<X<X<X<X<X<X<X<X<X<X<X<X<X<X<X<X<X<X<X<X<X<X<X<X<X<X",
"<X<X<X<X<X<X<X<X<X<X<X<X<X<X<X<X<X<X<X<X<X<X<X<X<X<X<X<X<X<X<X<X",
"<X<X<X<X<X<X<X<X<X<X<X<X<X<X<X<X<X<X<X<X<X<X<X<X<X<X<X<X<X<X<X<X",
"<X<X<X<X<X<X<X<X<X<X<X<X<X<X<X<X<X<X<X<X<X<X<X<X<X<X<X<X<X<X<X<X",
"<X<X<X<X<X<X<X<X<X<X<X<X<X<X<X<X<X<X<X<X<X<X<X<X<X<X<X<X<X<X<X<X",
"<X<X<X<X<X<X<X<X<X<X<X<X<X<X<X<X<X<X<X<X<X<X<X<X<X<X<X<X<X<X<X<X",
"<X<X<X<X<X<X<X<X<X<X<X<X<X<X<X<X<X<X<X<X<X<X<X<X,XXX<X<X<X<X<X<X",
"<X<X<X<X,XoX[.Y J <X<X<X<X<X<X<X<X<X<X<X<X,X!.} r.N.*X<X<X<X<X<X",
"<X<X<X<X<XQ J.e.i d <X<X<X<X<X<X,X:XOX).H.t.I N V F | <X<X<X<X<X",
"<X<X<X<X1 C #XD.h y 1.g.d.n.m.b.v.h.7.6.5.P B O   2 R P.<X<X<X<X",
"<X<X<X<X* <X<XI._ r ~ *.x l k c ` ' z v 4.( A < X & D i.+X<X<X<X",
"<X<X<X<X6 L.K.A.2.% ! #.+...%.O.@.X.X.^ / 8.{ U H L w./._.<X<X<X",
"<X<X<X<XK p.y.V.u.8 W n j b :.M ;.3.$.) [ 9.q.0.s.f.G.(.^.,X<X<X",
"<X<X<X<Xs Z.a.B.S.a f <.] o.=.-.&.m  .x.>.,.k.l.z.c.F.W.E.<X<X<X",
"<X<X<X7 4 <X%XXX'.E . T M.`.]..X X|.}.{.j.C.T.U.Y.R.Q.~.-X<X<X<X",
"<XG g 9 3 <X<X<X<X<X> o # 5 <X<X<X<X,X;X*X&X@X$X=X*X>X<X<X<X<X<X",
"<Xq p : <X<X<X<X<X<X<Xw $ + @ <X<X<X<X<X<X<X<X<X<X<X<X<X<X<X<X<X",
"<XS - <X<X<X<X<X<X<X<X<X0 t u ; <X<X<X<X<X<X<X<X<X<X<X<X<X<X<X<X",
"<X<X<X<X<X<X<X<X<X<X<X<X<XZ e = , <X<X<X<X<X<X<X<X<X<X<X<X<X<X<X",
"<X<X<X<X<X<X<X<X<X<X<X<X<X<X<X<X<X<X<X<X<X<X<X<X<X<X<X<X<X<X<X<X",
"<X<X<X<X<X<X<X<X<X<X<X<X<X<X<X<X<X<X<X<X<X<X<X<X<X<X<X<X<X<X<X<X",
"<X<X<X<X<X<X<X<X<X<X<X<X<X<X<X<X<X<X<X<X<X<X<X<X<X<X<X<X<X<X<X<X",
"<X<X<X<X<X<X<X<X<X<X<X<X<X<X<X<X<X<X<X<X<X<X<X<X<X<X<X<X<X<X<X<X",
"<X<X<X<X<X<X<X<X<X<X<X<X<X<X<X<X<X<X<X<X<X<X<X<X<X<X<X<X<X<X<X<X",
"<X<X<X<X<X<X<X<X<X<X<X<X<X<X<X<X<X<X<X<X<X<X<X<X<X<X<X<X<X<X<X<X",
"<X<X<X<X<X<X<X<X<X<X<X<X<X<X<X<X<X<X<X<X<X<X<X<X<X<X<X<X<X<X<X<X",
"<X<X<X<X<X<X<X<X<X<X<X<X<X<X<X<X<X<X<X<X<X<X<X<X<X<X<X<X<X<X<X<X",
"<X<X<X<X<X<X<X<X<X<X<X<X<X<X<X<X<X<X<X<X<X<X<X<X<X<X<X<X<X<X<X<X"
};
